<?xml version="1.0" encoding="UTF-8" standalone="no"?>
<svg
   data-name="filled outline"
   viewBox="0 0 340 340"
   version="1.1"
   id="svg14"
   sodipodi:docname="icon.svg"
   inkscape:version="1.4 (86a8ad7, 2024-10-11)"
   xmlns:inkscape="http://www.inkscape.org/namespaces/inkscape"
   xmlns:sodipodi="http://sodipodi.sourceforge.net/DTD/sodipodi-0.dtd"
   xmlns="http://www.w3.org/2000/svg"
   xmlns:svg="http://www.w3.org/2000/svg">
  <sodipodi:namedview
     id="namedview14"
     pagecolor="#ffffff"
     bordercolor="#000000"
     borderopacity="0.25"
     inkscape:showpageshadow="2"
     inkscape:pageopacity="0.0"
     inkscape:pagecheckerboard="0"
     inkscape:deskcolor="#d1d1d1"
     showgrid="false"
     inkscape:zoom="2.6029412"
     inkscape:cx="169.80791"
     inkscape:cy="170.38418"
     inkscape:window-width="1920"
     inkscape:window-height="1129"
     inkscape:window-x="-8"
     inkscape:window-y="-8"
     inkscape:window-maximized="1"
     inkscape:current-layer="svg14" />
  <!-- Definizione filtro ombra -->
  <defs
     id="defs1">
    <filter
       id="shadow"
       x="0"
       y="0"
       width="1"
       height="1">
      <feDropShadow
         dx="0.5"
         dy="0.5"
         stdDeviation="0.2"
         flood-opacity="0.3" />
    </filter>
    <rect
       x="78.49498"
       y="499.8501"
       width="454.29128"
       height="115.02285"
       id="rect7-4" />
    <rect
       x="78.49498"
       y="499.8501"
       width="487.65882"
       height="90.139304"
       id="rect7-9" />
  </defs>
  <path
     style="fill:#fff"
     d="M20.671 20.047h298.657v167.718H20.671z"
     id="path1" />
  <!-- Linee verticali per dividere le lane -->
  <path
     style="fill:#e0e0e0"
     d="M110 30v148 M220 30v148"
     id="path2" />
  <!-- Titoli delle lane -->
  <text
     x="65"
     y="50"
     font-family="Arial"
     font-size="14px"
     text-anchor="middle"
     fill="#333"
     id="text2"
     style="fill:#808080;font-size:14px;font-family:Arial;text-anchor:middle"><tspan
       style="font-style:normal;font-variant:normal;font-weight:normal;font-stretch:normal;font-size:14px;font-family:Monospace;-inkscape-font-specification:'Monospace, Normal';font-variant-ligatures:normal;font-variant-caps:normal;font-variant-numeric:normal;font-variant-east-asian:normal;fill:#808080"
       id="tspan15">TO DO</tspan></text>
  <text
     x="165"
     y="50"
     font-family="Arial"
     font-size="14px"
     text-anchor="middle"
     fill="#333333"
     id="text3"
     style="font-size:14px;font-family:Arial;text-anchor:middle;fill:#808080"><tspan
       style="font-style:normal;font-variant:normal;font-weight:normal;font-stretch:normal;font-size:14px;font-family:Monospace;-inkscape-font-specification:'Monospace, Normal';font-variant-ligatures:normal;font-variant-caps:normal;font-variant-numeric:normal;font-variant-east-asian:normal;fill:#808080"
       id="tspan16">IN PROGRESS</tspan></text>
  <text
     x="265"
     y="50"
     font-family="Arial"
     font-size="14px"
     text-anchor="middle"
     fill="#333333"
     id="text4"
     style="font-size:14px;font-family:Arial;text-anchor:middle;fill:#666666"><tspan
       style="font-style:normal;font-variant:normal;font-weight:normal;font-stretch:normal;font-size:14px;font-family:Monospace;-inkscape-font-specification:'Monospace, Normal';font-variant-ligatures:normal;font-variant-caps:normal;font-variant-numeric:normal;font-variant-east-asian:normal;fill:#666666"
       id="tspan17">DONE</tspan></text>
  <!-- Card esempio per ogni lane con nuovi colori -->
  <rect
     x="40"
     y="70"
     width="50"
     height="30"
     rx="3"
     fill="#f0f0f0"
     stroke="#ccc"
     id="rect4"
     style="fill:#ff8080" />
  <rect
     x="40"
     y="110"
     width="50"
     height="30"
     rx="3"
     fill="#f0f0f0"
     stroke="#ccc"
     id="rect5"
     style="fill:#ff8080" />
  <rect
     x="140"
     y="70"
     width="50"
     height="30"
     rx="3"
     fill="#fff3cd"
     stroke="#ccc"
     id="rect6" />
  <rect
     x="240"
     y="70"
     width="50"
     height="30"
     rx="3"
     fill="#d4edda"
     stroke="#ccc"
     id="rect7" />
  <rect
     x="240"
     y="110"
     width="50"
     height="30"
     rx="3"
     fill="#d4edda"
     stroke="#ccc"
     id="rect8" />
  <rect
     x="240"
     y="150"
     width="50"
     height="30"
     rx="3"
     fill="#d4edda"
     stroke="#ccc"
     id="rect9" />
  <!-- Base della lavagna -->
  <path
     d="M312.6 212.1H27.4A17.4 17.4 0 0 1 10 194.7v-6.935h320v6.935a17.4 17.4 0 0 1-17.4 17.4z"
     style="fill:#ffc998"
     id="path9" />
  <path
     style="fill:#f49d70;stroke-width:0.801226"
     d="m 88.277753,215.9418 h 16.720367 v 86.07747 H 88.277753 Z"
     id="path10" />
  <path
     d="M109.417 303.556H83.85a8.9 8.9 0 0 0-8.9 8.9v7.495h43.372v-7.495a8.9 8.9 0 0 0-8.905-8.9zM231.11 212.1h24.514v91.456H231.11z"
     style="fill:#f49d70"
     id="path11" />
  <path
     d="M256.15 303.556h-25.567a8.9 8.9 0 0 0-8.9 8.9v7.495h43.372v-7.495a8.9 8.9 0 0 0-8.905-8.9z"
     style="fill:#f49d70"
     id="path12" />
  <path
     d="M330 183.764H10a4 4 0 0 0-4 4v6.936a21.425 21.425 0 0 0 21.4 21.4h52.976v83.944a12.917 12.917 0 0 0-9.429 12.414v7.495a4 4 0 0 0 4 4h43.372a4 4 0 0 0 4-4v-7.495a12.917 12.917 0 0 0-9.428-12.414V216.1h114.218v83.944a12.917 12.917 0 0 0-9.428 12.414v7.495a4 4 0 0 0 4 4h43.372a4 4 0 0 0 4-4v-7.495a12.917 12.917 0 0 0-9.429-12.414V216.1H312.6a21.425 21.425 0 0 0 21.4-21.4v-6.936a4 4 0 0 0-4-4zM114.319 312.458v3.495H78.947v-3.495a4.965 4.965 0 0 1 5.429-4.9h24.515a4.964 4.964 0 0 1 5.428 4.9zm-25.943-12.9V216.1h16.515v83.456zm172.677 12.9v3.495h-35.372v-3.495a4.964 4.964 0 0 1 5.428-4.9h24.515a4.965 4.965 0 0 1 5.429 4.9zm-25.944-12.9V216.1h16.515v83.456zM326 194.7a13.416 13.416 0 0 1-13.4 13.4H27.4A13.416 13.416 0 0 1 14 194.7v-2.936h312z"
     style="fill:#2f313f"
     id="path13" />
  <!-- Testo Kanboardizer con ombra -->
  <g
     id="rect14">
    <path
       style="stroke-linecap:round;stroke-linejoin:round;paint-order:stroke markers fill"
       d="M 11.910156,8.9707031 A 0.63313419,0.63313419 0 0 0 11.277344,9.6054688 V 182.86914 a 0.63313419,0.63313419 0 0 0 0.632812,0.63477 H 328.47461 a 0.63313419,0.63313419 0 0 0 0.63281,-0.63477 V 9.6054688 a 0.63313419,0.63313419 0 0 0 -0.63281,-0.6347657 z m 0.632813,1.2675779 H 327.8418 V 182.23633 H 12.542969 Z"
       id="path17" />
    <path
       style="fill:#00e624;fill-opacity:0;stroke-linecap:round;stroke-linejoin:round;paint-order:stroke markers fill"
       d="M 11.909604,9.6045198 H 328.47458 V 182.87005 H 11.909604 Z"
       id="path18" />
  </g>
  <text
     xml:space="preserve"
     transform="matrix(0.48357158,0,0,0.5712486,9.4181745,-54.195445)"
     id="text7"
     style="font-size:77.3333px;font-family:'Lucida Sans Unicode';-inkscape-font-specification:'Lucida Sans Unicode';text-align:start;writing-mode:lr-tb;direction:ltr;white-space:pre;shape-inside:url(#rect7-4);clip-rule:evenodd;display:inline;fill:#000000;fill-opacity:0.40806;fill-rule:evenodd;stroke:#000000;stroke-width:0;stroke-linecap:round;stroke-linejoin:round;stroke-dasharray:none;stroke-dashoffset:0;paint-order:stroke markers fill;image-rendering:optimizeQuality;shape-rendering:geometricPrecision;text-rendering:geometricPrecision"><tspan
       x="78.494141"
       y="570.83244"
       id="tspan3">Kanboard</tspan></text>
  <text
     xml:space="preserve"
     style="font-size:40.6452px;font-family:'Lucida Sans Unicode';-inkscape-font-specification:'Lucida Sans Unicode';text-align:start;writing-mode:lr-tb;direction:ltr;text-anchor:start;clip-rule:evenodd;fill:#000000;fill-opacity:0.41;fill-rule:evenodd;stroke:none;stroke-width:0.665467;stroke-linecap:round;stroke-linejoin:round;paint-order:stroke markers fill;image-rendering:optimizeQuality;shape-rendering:geometricPrecision;text-rendering:geometricPrecision"
     x="241.67981"
     y="248.72878"
     id="text8"
     transform="scale(0.9200635,1.0868815)"><tspan
       sodipodi:role="line"
       id="tspan8"
       style="fill:#000000;fill-opacity:0.41;stroke:none;stroke-width:0.665467"
       x="241.67981"
       y="248.72878">izer</tspan></text>
  <text
     xml:space="preserve"
     transform="matrix(0.48357158,0,0,0.5712486,7.1386356,-52.47054)"
     id="text7-4"
     style="font-size:77.3333px;font-family:'Lucida Sans Unicode';-inkscape-font-specification:'Lucida Sans Unicode';text-align:start;writing-mode:lr-tb;direction:ltr;white-space:pre;shape-inside:url(#rect7-9);clip-rule:evenodd;display:inline;fill:#668000;fill-opacity:1;fill-rule:evenodd;stroke:#000000;stroke-width:1.26614;stroke-linecap:round;stroke-linejoin:round;paint-order:stroke markers fill;image-rendering:optimizeQuality;shape-rendering:geometricPrecision;text-rendering:geometricPrecision"><tspan
       x="78.494141"
       y="570.83244"
       id="tspan4">Kanboard</tspan></text>
  <text
     xml:space="preserve"
     style="font-size:40.6452px;font-family:'Lucida Sans Unicode';-inkscape-font-specification:'Lucida Sans Unicode';text-align:start;writing-mode:lr-tb;direction:ltr;text-anchor:start;clip-rule:evenodd;fill:#ff0000;fill-opacity:1;fill-rule:evenodd;stroke:#000000;stroke-width:0.6;stroke-linecap:round;stroke-linejoin:round;stroke-dasharray:none;paint-order:stroke markers fill;image-rendering:optimizeQuality;shape-rendering:geometricPrecision;text-rendering:geometricPrecision"
     x="240.39819"
     y="251.8369"
     id="text8-8"
     transform="scale(0.9200635,1.0868815)"><tspan
       sodipodi:role="line"
       id="tspan8-8"
       style="fill:#ff0000;stroke-width:0.6;stroke-dasharray:none"
       x="240.39819"
       y="251.8369">izer</tspan></text>
</svg>
